<mxfile host="app.diagrams.net" modified="2021-12-27T17:14:58.667Z" agent="5.0 (Windows NT 10.0; Win64; x64) AppleWebKit/537.36 (KHTML, like Gecko) Chrome/94.0.4606.85 YaBrowser/21.11.4.727 Yowser/2.5 Safari/537.36" etag="0EqRXAqwv5EqLCKgl384" version="16.0.3" type="github">
  <diagram id="59Bon1cOLtPwaRQgvXn5" name="Page-1">
    <mxGraphModel dx="1221" dy="676" grid="1" gridSize="10" guides="1" tooltips="1" connect="1" arrows="1" fold="1" page="1" pageScale="1" pageWidth="4681" pageHeight="3300" background="#182E3E" math="0" shadow="0">
      <root>
        <mxCell id="0" />
        <mxCell id="1" parent="0" />
        <mxCell id="sZ_B7B7vFebar1f-IPOm-16" value="" style="rounded=0;whiteSpace=wrap;html=1;fillColor=#d5e8d4;strokeColor=#82b366;" vertex="1" parent="1">
          <mxGeometry x="900" y="580" width="200" height="260" as="geometry" />
        </mxCell>
        <mxCell id="sZ_B7B7vFebar1f-IPOm-15" value="" style="rounded=0;whiteSpace=wrap;html=1;fillColor=#f8cecc;strokeColor=#b85450;" vertex="1" parent="1">
          <mxGeometry x="680" y="580" width="220" height="260" as="geometry" />
        </mxCell>
        <mxCell id="sZ_B7B7vFebar1f-IPOm-14" value="" style="rounded=0;whiteSpace=wrap;html=1;fillColor=#e1d5e7;strokeColor=#9673a6;" vertex="1" parent="1">
          <mxGeometry x="360" y="580" width="320" height="260" as="geometry" />
        </mxCell>
        <mxCell id="sZ_B7B7vFebar1f-IPOm-12" value="" style="rounded=0;whiteSpace=wrap;html=1;fillColor=#ffff88;strokeColor=#36393d;" vertex="1" parent="1">
          <mxGeometry x="200" y="580" width="160" height="260" as="geometry" />
        </mxCell>
        <mxCell id="sZ_B7B7vFebar1f-IPOm-10" value="" style="rounded=0;whiteSpace=wrap;html=1;fillColor=#ffe6cc;strokeColor=#d79b00;align=center;" vertex="1" parent="1">
          <mxGeometry x="50" y="580" width="150" height="260" as="geometry" />
        </mxCell>
        <mxCell id="sZ_B7B7vFebar1f-IPOm-20" style="edgeStyle=orthogonalEdgeStyle;rounded=0;orthogonalLoop=1;jettySize=auto;html=1;entryX=0;entryY=0.5;entryDx=0;entryDy=0;fontColor=#1A1A1A;" edge="1" parent="1" source="sZ_B7B7vFebar1f-IPOm-1" target="sZ_B7B7vFebar1f-IPOm-3">
          <mxGeometry relative="1" as="geometry" />
        </mxCell>
        <mxCell id="sZ_B7B7vFebar1f-IPOm-1" value="Реєстрація" style="rounded=0;whiteSpace=wrap;html=1;" vertex="1" parent="1">
          <mxGeometry x="60" y="630" width="120" height="60" as="geometry" />
        </mxCell>
        <mxCell id="sZ_B7B7vFebar1f-IPOm-21" style="edgeStyle=orthogonalEdgeStyle;rounded=0;orthogonalLoop=1;jettySize=auto;html=1;entryX=0;entryY=0.5;entryDx=0;entryDy=0;fontColor=#1A1A1A;" edge="1" parent="1" source="sZ_B7B7vFebar1f-IPOm-2" target="sZ_B7B7vFebar1f-IPOm-3">
          <mxGeometry relative="1" as="geometry" />
        </mxCell>
        <mxCell id="sZ_B7B7vFebar1f-IPOm-2" value="Авторизація" style="rounded=0;whiteSpace=wrap;html=1;" vertex="1" parent="1">
          <mxGeometry x="60" y="720" width="120" height="60" as="geometry" />
        </mxCell>
        <mxCell id="sZ_B7B7vFebar1f-IPOm-22" style="edgeStyle=orthogonalEdgeStyle;rounded=0;orthogonalLoop=1;jettySize=auto;html=1;fontColor=#1A1A1A;" edge="1" parent="1" source="sZ_B7B7vFebar1f-IPOm-3" target="sZ_B7B7vFebar1f-IPOm-6">
          <mxGeometry relative="1" as="geometry" />
        </mxCell>
        <mxCell id="sZ_B7B7vFebar1f-IPOm-25" style="edgeStyle=orthogonalEdgeStyle;rounded=0;orthogonalLoop=1;jettySize=auto;html=1;entryX=0;entryY=0.5;entryDx=0;entryDy=0;fontColor=#1A1A1A;" edge="1" parent="1" source="sZ_B7B7vFebar1f-IPOm-3" target="sZ_B7B7vFebar1f-IPOm-4">
          <mxGeometry relative="1" as="geometry">
            <Array as="points">
              <mxPoint x="275" y="760" />
            </Array>
          </mxGeometry>
        </mxCell>
        <mxCell id="sZ_B7B7vFebar1f-IPOm-3" value="&lt;span style=&quot;color: rgb(26 , 26 , 26)&quot;&gt;Створення записів&amp;nbsp;&lt;/span&gt;&lt;br style=&quot;color: rgb(26 , 26 , 26)&quot;&gt;&lt;span style=&quot;color: rgb(26 , 26 , 26)&quot;&gt;пацієнтів&lt;/span&gt;" style="rounded=0;whiteSpace=wrap;html=1;" vertex="1" parent="1">
          <mxGeometry x="215" y="670" width="120" height="60" as="geometry" />
        </mxCell>
        <mxCell id="sZ_B7B7vFebar1f-IPOm-4" value="&lt;span style=&quot;color: rgb(26 , 26 , 26) ; background-color: rgb(255 , 255 , 255)&quot;&gt;Перегляд сторінки з даними пацієнта&lt;/span&gt;" style="rounded=0;whiteSpace=wrap;html=1;" vertex="1" parent="1">
          <mxGeometry x="730" y="730" width="120" height="60" as="geometry" />
        </mxCell>
        <mxCell id="sZ_B7B7vFebar1f-IPOm-23" style="edgeStyle=orthogonalEdgeStyle;rounded=0;orthogonalLoop=1;jettySize=auto;html=1;entryX=0;entryY=0.5;entryDx=0;entryDy=0;fontColor=#1A1A1A;" edge="1" parent="1" source="sZ_B7B7vFebar1f-IPOm-6" target="sZ_B7B7vFebar1f-IPOm-8">
          <mxGeometry relative="1" as="geometry">
            <Array as="points" />
          </mxGeometry>
        </mxCell>
        <mxCell id="sZ_B7B7vFebar1f-IPOm-6" value="&lt;span style=&quot;color: rgb(26 , 26 , 26)&quot;&gt;Комплексний аналіз показників здоров&#39;я пацієнтів&amp;nbsp;&lt;/span&gt;" style="rounded=0;whiteSpace=wrap;html=1;" vertex="1" parent="1">
          <mxGeometry x="380" y="670" width="140" height="60" as="geometry" />
        </mxCell>
        <mxCell id="sZ_B7B7vFebar1f-IPOm-26" style="edgeStyle=orthogonalEdgeStyle;rounded=0;orthogonalLoop=1;jettySize=auto;html=1;fontColor=#1A1A1A;" edge="1" parent="1" source="sZ_B7B7vFebar1f-IPOm-7" target="sZ_B7B7vFebar1f-IPOm-9">
          <mxGeometry relative="1" as="geometry">
            <Array as="points">
              <mxPoint x="900" y="670" />
              <mxPoint x="900" y="700" />
            </Array>
          </mxGeometry>
        </mxCell>
        <mxCell id="sZ_B7B7vFebar1f-IPOm-7" value="&lt;span style=&quot;color: rgb(26 , 26 , 26)&quot;&gt;Перевірка попереджень щодо ненормальних змін показників здоров&#39;я&lt;/span&gt;" style="rounded=0;whiteSpace=wrap;html=1;" vertex="1" parent="1">
          <mxGeometry x="710" y="640" width="160" height="60" as="geometry" />
        </mxCell>
        <mxCell id="sZ_B7B7vFebar1f-IPOm-24" style="edgeStyle=orthogonalEdgeStyle;rounded=0;orthogonalLoop=1;jettySize=auto;html=1;entryX=0;entryY=0.5;entryDx=0;entryDy=0;fontColor=#1A1A1A;" edge="1" parent="1" source="sZ_B7B7vFebar1f-IPOm-8" target="sZ_B7B7vFebar1f-IPOm-7">
          <mxGeometry relative="1" as="geometry">
            <Array as="points">
              <mxPoint x="680" y="700" />
              <mxPoint x="680" y="670" />
            </Array>
          </mxGeometry>
        </mxCell>
        <mxCell id="sZ_B7B7vFebar1f-IPOm-8" value="&lt;span style=&quot;color: rgb(26 , 26 , 26)&quot;&gt;Створення попередження та визначення можливих діагнозів&lt;/span&gt;" style="rounded=0;whiteSpace=wrap;html=1;" vertex="1" parent="1">
          <mxGeometry x="540" y="670" width="120" height="60" as="geometry" />
        </mxCell>
        <mxCell id="sZ_B7B7vFebar1f-IPOm-9" value="&lt;span style=&quot;color: rgb(26 , 26 , 26)&quot;&gt;Комунікація з пацієнтом при наявності попереджень, визначення подальших мір лікування&lt;/span&gt;" style="rounded=0;whiteSpace=wrap;html=1;" vertex="1" parent="1">
          <mxGeometry x="910" y="665" width="180" height="70" as="geometry" />
        </mxCell>
        <mxCell id="sZ_B7B7vFebar1f-IPOm-11" value="&lt;span style=&quot;font-size: 16px&quot;&gt;&lt;font color=&quot;#1a1a1a&quot;&gt;Аутентифікація&lt;br&gt;&amp;nbsp;лікаря&lt;/font&gt;&lt;/span&gt;" style="text;html=1;align=center;verticalAlign=middle;resizable=0;points=[];autosize=1;strokeColor=none;fillColor=none;" vertex="1" parent="1">
          <mxGeometry x="55" y="590" width="130" height="30" as="geometry" />
        </mxCell>
        <mxCell id="sZ_B7B7vFebar1f-IPOm-13" value="&lt;span style=&quot;font-family: &amp;#34;helvetica&amp;#34; ; font-size: 16px&quot;&gt;Внесення даних&lt;/span&gt;&lt;br style=&quot;font-family: &amp;#34;helvetica&amp;#34; ; font-size: 16px&quot;&gt;&lt;span style=&quot;font-family: &amp;#34;helvetica&amp;#34; ; font-size: 16px&quot;&gt;пацієнтів&lt;/span&gt;" style="text;html=1;align=center;verticalAlign=middle;resizable=0;points=[];autosize=1;strokeColor=none;fillColor=none;fontColor=#1A1A1A;" vertex="1" parent="1">
          <mxGeometry x="200" y="590" width="140" height="30" as="geometry" />
        </mxCell>
        <mxCell id="sZ_B7B7vFebar1f-IPOm-17" value="&lt;span style=&quot;font-size: 16px&quot;&gt;Перегляд даних&amp;nbsp;&lt;/span&gt;&lt;br style=&quot;font-size: 16px&quot;&gt;&lt;span style=&quot;font-size: 16px&quot;&gt;пацієнтів та попереджень&lt;/span&gt;" style="text;html=1;align=center;verticalAlign=middle;resizable=0;points=[];autosize=1;strokeColor=none;fillColor=none;fontColor=#1A1A1A;" vertex="1" parent="1">
          <mxGeometry x="680" y="590" width="210" height="30" as="geometry" />
        </mxCell>
        <mxCell id="sZ_B7B7vFebar1f-IPOm-18" value="&lt;span style=&quot;font-size: 16px&quot;&gt;Оброблення даних пацієнтів&lt;/span&gt;" style="text;html=1;align=center;verticalAlign=middle;resizable=0;points=[];autosize=1;strokeColor=none;fillColor=none;fontColor=#1A1A1A;" vertex="1" parent="1">
          <mxGeometry x="390" y="595" width="230" height="20" as="geometry" />
        </mxCell>
        <mxCell id="sZ_B7B7vFebar1f-IPOm-19" value="&lt;span style=&quot;font-size: 16px ; font-family: &amp;#34;helvetica&amp;#34;&quot;&gt;Надання допомоги&lt;/span&gt;&lt;br style=&quot;font-size: 16px ; font-family: &amp;#34;helvetica&amp;#34;&quot;&gt;&lt;span style=&quot;font-size: 16px ; font-family: &amp;#34;helvetica&amp;#34;&quot;&gt;пацієнту&lt;/span&gt;" style="text;html=1;align=center;verticalAlign=middle;resizable=0;points=[];autosize=1;strokeColor=none;fillColor=none;fontColor=#1A1A1A;" vertex="1" parent="1">
          <mxGeometry x="920" y="590" width="160" height="30" as="geometry" />
        </mxCell>
      </root>
    </mxGraphModel>
  </diagram>
</mxfile>
